<?xml version="1.0" ?><svg data-name="Layer 1" id="Layer_1" viewBox="0 0 512 512" xmlns="http://www.w3.org/2000/svg"><path fill="#8DBA9C" d="M133.47,183.8a27.83,27.83,0,1,0-27-28.66A27.83,27.83,0,0,0,133.47,183.8Z"/><path fill="#8DBA9C" d="M475,86.76A18.38,18.38,0,0,0,450.78,96l-42,94.08H103.21L61.22,96A18.36,18.36,0,0,0,27.7,111L74.55,215.94a18.09,18.09,0,0,0,3.5,5.08c.38.4.82.69,1.23,1A19.91,19.91,0,0,0,85,225.53a18.33,18.33,0,0,0,6.3,1.27h.1V298a42.8,42.8,0,0,0,20.13,36.26v68.83a23.74,23.74,0,1,0,47.47,0V333.76A42.86,42.86,0,0,0,178.18,298V226.81H212.6V298a42.86,42.86,0,0,0,19.21,35.76v69.33a23.73,23.73,0,0,0,23.73,23.74h0a23.74,23.74,0,0,0,23.74-23.74V334.26A42.8,42.8,0,0,0,299.41,298V226.81h34.41V298A42.81,42.81,0,0,0,354,334.26v68.83a23.73,23.73,0,0,0,23.73,23.74h0a23.74,23.74,0,0,0,23.74-23.74V333.76A42.86,42.86,0,0,0,420.64,298V226.81h.09a18.33,18.33,0,0,0,6.3-1.27,19.91,19.91,0,0,0,5.69-3.46c.41-.36.85-.65,1.23-1a18.09,18.09,0,0,0,3.5-5.08L484.3,111A18.36,18.36,0,0,0,475,86.76Z"/><path fill="#8DBA9C" d="M378.54,183.8a27.83,27.83,0,1,0-28.66-27A27.83,27.83,0,0,0,378.54,183.8Z"/><path fill="#8DBA9C" d="M257.31,183.8a27.83,27.83,0,1,0-28.66-27A27.83,27.83,0,0,0,257.31,183.8Z"/></svg>