<?xml version="1.0" ?><!DOCTYPE svg  PUBLIC '-//W3C//DTD SVG 1.1//EN'  'http://www.w3.org/Graphics/SVG/1.1/DTD/svg11.dtd'><svg enable-background="new 0 0 64 64" height="64px" version="1.1" viewBox="0 0 64 64" width="64px" xml:space="preserve" xmlns="http://www.w3.org/2000/svg" xmlns:xlink="http://www.w3.org/1999/xlink"><g id="_x35_0_China"/><g id="_x34_9_fever"/><g id="_x34_8_Thermo_Head"/><g id="_x34_7_Call_Hospital"/><g id="_x34_6_Hospital_Bed"/><g id="_x34_5_Eye"/><g id="_x34_4_Ambulance"/><g id="_x34_3_disinfectant"/><g id="_x34_2_Antibody"/><g id="_x34_1_Death"/><g id="_x34_0_Isolation_Room"/><g id="_x33_9_Soap"/><g id="_x33_8_Corona_Virus"/><g id="_x33_7_Medic"/><g id="_x33_6_Vitamin"/><g id="_x33_5_Diare"/><g id="_x33_4_Hand_sanitizer"/><g id="_x33_3_Soap"/><g id="_x33_2_Wash_Hand"/><g id="_x33_1_Wash_with_Soap"/><g id="_x33_0_Stethoscope"/><g id="_x32_9_Lockdown"/><g id="_x32_8_Bat"/><g id="_x32_7_Pills"/><g id="_x32_6_Airborne"/><g id="_x32_5_Lockdown"/><g id="_x32_4_Siocial_Distance"/><g id="_x32_3_Thermometer"/><g id="_x32_2_Hand_Soap"/><g id="_x32_1_Alcohol"/><g id="_x32_0_Vaccine"/><g id="_x31_9_Clinic"/><g id="_x31_8_Check_Up"/><g id="_x31_7_Pneumonia"/><g id="_x31_6_Masker"/><g id="_x31_5_Use_Masker"/><g id="_x31_4_No_Travel"/><g id="_x31_3_No_crowd"><g><path fill="#8DBA9C" d="M37.221,54.946C37.715,54.075,38,53.071,38,52v-2c0-3.309-2.691-6-6-6s-6,2.691-6,6v2c0,1.071,0.285,2.075,0.779,2.946    C25.111,56.013,24,57.877,24,60v2c0,1.104,0.896,2,2,2h12c1.104,0,2-0.896,2-2v-2C40,57.877,38.889,56.013,37.221,54.946z M30,50    c0-1.103,0.897-2,2-2s2,0.897,2,2v2c0,1.103-0.897,2-2,2s-2-0.897-2-2V50z M28,60c0-1.103,0.897-2,2-2h4c1.103,0,2,0.897,2,2H28z"/><path fill="#8DBA9C" d="M17.221,54.946C17.715,54.075,18,53.071,18,52v-2c0-3.309-2.691-6-6-6s-6,2.691-6,6v2c0,1.071,0.285,2.075,0.779,2.946    C5.111,56.013,4,57.877,4,60v2c0,1.104,0.896,2,2,2h12c1.104,0,2-0.896,2-2v-2C20,57.877,18.889,56.013,17.221,54.946z M10,50    c0-1.103,0.897-2,2-2s2,0.897,2,2v2c0,1.103-0.897,2-2,2s-2-0.897-2-2V50z M8,60c0-1.103,0.897-2,2-2h4c1.103,0,2,0.897,2,2H8z"/><path fill="#8DBA9C" d="M57.221,54.946C57.715,54.075,58,53.071,58,52v-2c0-3.309-2.691-6-6-6s-6,2.691-6,6v2c0,1.071,0.285,2.075,0.779,2.946    C45.111,56.013,44,57.877,44,60v2c0,1.104,0.896,2,2,2h12c1.104,0,2-0.896,2-2v-2C60,57.877,58.889,56.013,57.221,54.946z M50,50    c0-1.103,0.897-2,2-2s2,0.897,2,2v2c0,1.103-0.897,2-2,2s-2-0.897-2-2V50z M48,60c0-1.103,0.897-2,2-2h4c1.103,0,2,0.897,2,2H48z"/><path fill="#8DBA9C" d="M17.221,32.946C17.715,32.075,18,31.071,18,30v-2c0-3.309-2.691-6-6-6s-6,2.691-6,6v2c0,1.071,0.285,2.075,0.779,2.946    C5.111,34.013,4,35.877,4,38v2c0,1.104,0.896,2,2,2h12c1.104,0,2-0.896,2-2v-2C20,35.877,18.889,34.013,17.221,32.946z M10,28    c0-1.103,0.897-2,2-2s2,0.897,2,2v2c0,1.103-0.897,2-2,2s-2-0.897-2-2V28z M8,38c0-1.103,0.897-2,2-2h4c1.103,0,2,0.897,2,2H8z"/><path fill="#8DBA9C" d="M57.221,32.946C57.715,32.075,58,31.071,58,30v-2c0-3.309-2.691-6-6-6s-6,2.691-6,6v2c0,1.071,0.285,2.075,0.779,2.946    C45.111,34.013,44,35.877,44,38v2c0,1.104,0.896,2,2,2h12c1.104,0,2-0.896,2-2v-2C60,35.877,58.889,34.013,57.221,32.946z M50,28    c0-1.103,0.897-2,2-2s2,0.897,2,2v2c0,1.103-0.897,2-2,2s-2-0.897-2-2V28z M48,38c0-1.103,0.897-2,2-2h4c1.103,0,2,0.897,2,2H48z"/><path fill="#8DBA9C" d="M26,20h12c1.104,0,2-0.896,2-2v-2c0-2.123-1.111-3.987-2.779-5.054C37.715,10.075,38,9.071,38,8V6c0-3.309-2.691-6-6-6    s-6,2.691-6,6v2c0,1.071,0.285,2.075,0.779,2.946C25.111,12.013,24,13.877,24,16v2C24,19.104,24.896,20,26,20z M28,16    c0-1.103,0.897-2,2-2h4c1.103,0,2,0.897,2,2H28z M30,6c0-1.103,0.897-2,2-2s2,0.897,2,2v2c0,1.103-0.897,2-2,2s-2-0.897-2-2V6z"/><path fill="#8DBA9C" d="M17.221,10.946C17.715,10.075,18,9.071,18,8V6c0-3.309-2.691-6-6-6S6,2.691,6,6v2c0,1.071,0.285,2.075,0.779,2.946    C5.111,12.013,4,13.877,4,16v2c0,1.104,0.896,2,2,2h12c1.104,0,2-0.896,2-2v-2C20,13.877,18.889,12.013,17.221,10.946z M10,6    c0-1.103,0.897-2,2-2s2,0.897,2,2v2c0,1.103-0.897,2-2,2s-2-0.897-2-2V6z M8,16c0-1.103,0.897-2,2-2h4c1.103,0,2,0.897,2,2H8z"/><path fill="#8DBA9C" d="M57.221,10.946C57.715,10.075,58,9.071,58,8V6c0-3.309-2.691-6-6-6s-6,2.691-6,6v2c0,1.071,0.285,2.075,0.779,2.946    C45.111,12.013,44,13.877,44,16v2c0,1.104,0.896,2,2,2h12c1.104,0,2-0.896,2-2v-2C60,13.877,58.889,12.013,57.221,10.946z M50,6    c0-1.103,0.897-2,2-2s2,0.897,2,2v2c0,1.103-0.897,2-2,2s-2-0.897-2-2V6z M48,16c0-1.103,0.897-2,2-2h4c1.103,0,2,0.897,2,2H48z"/><path fill="#8DBA9C" d="M32,22c-5.514,0-10,4.486-10,10s4.486,10,10,10s10-4.486,10-10S37.514,22,32,22z M32,38c-3.309,0-6-2.691-6-6s2.691-6,6-6    s6,2.691,6,6S35.309,38,32,38z"/><path fill="#8DBA9C" d="M35.414,28.586c-0.78-0.781-2.048-0.781-2.828,0L32,29.172l-0.586-0.586c-0.78-0.781-2.048-0.781-2.828,0    c-0.781,0.781-0.781,2.047,0,2.828L29.172,32l-0.586,0.586c-0.781,0.781-0.781,2.047,0,2.828C28.976,35.805,29.488,36,30,36    s1.024-0.195,1.414-0.586L32,34.828l0.586,0.586C32.976,35.805,33.488,36,34,36s1.024-0.195,1.414-0.586    c0.781-0.781,0.781-2.047,0-2.828L34.828,32l0.586-0.586C36.195,30.633,36.195,29.367,35.414,28.586z"/></g></g><g id="_x31_2_Work_from_Home"/><g id="_x31_1_Quarantine"/><g id="_x31_0_Face_Contact"/><g id="_x30_9_Headache"/><g id="_x30_8_Puke"/><g id="_x30_7_Sore_Throath"/><g id="_x30_6_Breathe"/><g id="_x30_5_Cough"/><g id="_x30_4_Blood"/><g id="_x30_3_Microscope"/><g id="_x30_2_Pandemic"/><g id="_x30_1_Corona_Virus"/></svg>