<?xml version="1.0" ?><!DOCTYPE svg  PUBLIC '-//W3C//DTD SVG 1.1//EN'  'http://www.w3.org/Graphics/SVG/1.1/DTD/svg11.dtd'><svg enable-background="new 0 0 64 64" height="64px" id="Layer_1" version="1.1" viewBox="0 0 64 64" width="64px" xml:space="preserve" xmlns="http://www.w3.org/2000/svg" xmlns:xlink="http://www.w3.org/1999/xlink"><g><path d="M1.802,58.556c-0.466,0-0.818-0.353-0.818-0.819V17.31c0-0.458,0.359-0.818,0.818-0.818h18.261V6.262   c0-0.458,0.358-0.818,0.816-0.818h22.24c0.458,0,0.816,0.359,0.816,0.818v10.23h18.262c0.458,0,0.817,0.359,0.817,0.818v40.426   c0,0.467-0.352,0.819-0.817,0.819H1.802z M5.771,28.884c-0.711,0-1.33,0.244-1.79,0.704c-0.583,0.584-0.877,1.461-0.875,2.608   v21.468c0.025,1.069,0.755,2.626,2.665,2.626h19.388c0.812-0.038,2.301-0.617,2.47-2.539c0.021-0.784-0.217-1.419-0.685-1.899   c-0.613-0.629-1.483-0.853-2.093-0.853l-16.42-0.034L8.397,32.293c0.052-0.364,0.134-1.431-0.505-2.311   c-0.311-0.427-0.91-0.963-2.004-1.092l-0.058-0.007H5.771z M32,19.886c-7.396,0-13.413,6.016-13.413,13.411   c0,7.396,6.017,13.414,13.413,13.414s13.412-6.018,13.412-13.414C45.412,25.902,39.396,19.886,32,19.886z" fill="#241F20"/><path d="M42.937,6.444v9.048v2h2h17.079v40.063H1.984V17.492h17.079h2v-2V6.444H42.937 M32,47.711   c7.947,0,14.412-6.466,14.412-14.414c0-7.946-6.465-14.411-14.412-14.411s-14.413,6.464-14.413,14.411   C17.587,41.245,24.053,47.711,32,47.711 M5.771,57.29h19.388h0.049l0.049-0.002c1.238-0.061,3.156-1.029,3.368-3.449l0.006-0.062   l0.001-0.062c0.024-0.997-0.312-1.883-0.973-2.561c-0.83-0.851-1.996-1.154-2.805-1.154L9.427,49.967L9.397,32.36   c0.071-0.567,0.113-1.851-0.697-2.965c-0.428-0.589-1.243-1.326-2.696-1.497l-0.116-0.014H5.771c-0.982,0-1.846,0.345-2.498,0.998   c-0.777,0.778-1.17,1.894-1.167,3.332l0,21.498C2.147,55.446,3.445,57.29,5.771,57.29 M43.12,4.444H20.88   c-1.018,0-1.816,0.82-1.816,1.818v9.23H1.802c-1.019,0-1.818,0.817-1.818,1.818v40.426c0,1.019,0.799,1.819,1.818,1.819h60.396   c1.017,0,1.817-0.801,1.817-1.819V17.31c0-1.001-0.801-1.818-1.817-1.818H44.937v-9.23C44.937,5.264,44.138,4.444,43.12,4.444   L43.12,4.444z M32,45.711c-6.855,0-12.413-5.558-12.413-12.414c0-6.853,5.558-12.411,12.413-12.411   c6.854,0,12.412,5.558,12.412,12.411C44.412,40.153,38.854,45.711,32,45.711L32,45.711z M5.771,55.29   c-1.626,0-1.665-1.626-1.665-1.626v-21.45c0-0.343-0.034-2.33,1.665-2.33c2.042,0.24,1.626,2.33,1.626,2.33l0.034,19.749   l17.419,0.036c0.514,0,1.816,0.309,1.782,1.665c-0.137,1.561-1.474,1.626-1.474,1.626S7.397,55.29,5.771,55.29L5.771,55.29z" fill="#241F20"/></g></svg>